HIERARCHY
ROOT Hips
{
	OFFSET 0.0000 0.0000 0.0000
	CHANNELS 6 Xposition Yposition Zposition Zrotation Xrotation Yrotation
	JOINT Ab
	{
		OFFSET -0.0000 8.1305 -0.0000
		CHANNELS 3 Zrotation Xrotation Yrotation
		JOINT Chest
		{
			OFFSET -0.0000 26.2902 -0.0000
			CHANNELS 3 Zrotation Xrotation Yrotation
			JOINT Neck
			{
				OFFSET -0.0000 26.2902 0.0000
				CHANNELS 3 Zrotation Xrotation Yrotation
				JOINT Head
				{
					OFFSET -0.0000 10.8167 0.0000
					CHANNELS 3 Zrotation Xrotation Yrotation
					End Site
					{
						OFFSET -0.0000 16.7167 0.0000
					}
				}
			}
			JOINT LeftCollar
			{
				OFFSET -0.0000 26.2902 0.0000
				CHANNELS 3 Zrotation Xrotation Yrotation
				JOINT LeftShoulder
				{
					OFFSET 19.6667 -0.0000 0.0000
					CHANNELS 3 Zrotation Xrotation Yrotation
					JOINT LeftElbow
					{
						OFFSET 27.2190 0.0000 0.0000
						CHANNELS 3 Zrotation Xrotation Yrotation
						JOINT LeftWrist
						{
							OFFSET 30.7431 0.0000 0.0000
							CHANNELS 3 Zrotation Xrotation Yrotation
							End Site
							{
								OFFSET 0.0000 -14.7500 0.0000
							}
						}
					}
				}
			}
			JOINT RightCollar
			{
				OFFSET -0.0000 26.2902 0.0000
				CHANNELS 3 Zrotation Xrotation Yrotation
				JOINT RightShoulder
				{
					OFFSET -19.6667 0.0000 0.0000
					CHANNELS 3 Zrotation Xrotation Yrotation
					JOINT RightElbow
					{
						OFFSET -27.2190 0.0000 0.0000
						CHANNELS 3 Zrotation Xrotation Yrotation
						JOINT RightWrist
						{
							OFFSET -30.7431 0.0000 0.0000
							CHANNELS 3 Zrotation Xrotation Yrotation
							End Site
							{
								OFFSET -0.0000 -14.7500 0.0000
							}
						}
					}
				}
			}
		}
	}
	JOINT LeftHip
	{
		OFFSET 11.8000 0.0000 0.0000
		CHANNELS 3 Zrotation Xrotation Yrotation
		JOINT LeftKnee
		{
			OFFSET -0.0000 -39.7832 0.0000
			CHANNELS 3 Zrotation Xrotation Yrotation
			JOINT LeftAnkle
			{
				OFFSET -0.0000 -41.7317 0.0000
				CHANNELS 3 Zrotation Xrotation Yrotation
				End Site
				{
					OFFSET -0.0000 -4.9167 16.7167
				}
			}
		}
	}
	JOINT RightHip
	{
		OFFSET -11.8000 0.0000 0.0000
		CHANNELS 3 Zrotation Xrotation Yrotation
		JOINT RightKnee
		{
			OFFSET -0.0000 -39.7832 0.0000
			CHANNELS 3 Zrotation Xrotation Yrotation
			JOINT RightAnkle
			{
				OFFSET -0.0000 -41.7317 0.0000
				CHANNELS 3 Zrotation Xrotation Yrotation
				End Site
				{
					OFFSET -0.0000 -4.9167 16.7167
				}
			}
		}
	}
}
MOTION
Frames: 15
Frame Time: 0.010000
-7.2018 93.9010 110.8280 354.7346 346.3978 201.0155 1.6310 349.7859 1.0534 3.5994 13.1198 0.4937 348.6627 350.9946 350.3481 7.9029 11.5537 350.4406 340.5315 357.6295 13.8165 324.0285 62.0979 332.6778 13.3825 354.7824 317.3498 89.4896 355.0670 350.4869 25.9133 356.2517 343.9040 36.9126 47.4307 13.4176 335.4757 352.3138 34.3898 268.2270 355.6228 2.5528 348.6590 350.1114 357.8705 357.5201 7.3671 4.5949 352.3206 351.1357 12.8572 348.0071 346.4820 2.3295 12.3213 17.8021 14.4915 349.3396 340.8407 312.0954 
-7.2590 93.8664 110.6163 354.8604 346.6479 200.8968 1.6212 349.7433 1.0314 3.6642 13.1835 0.4609 348.8595 351.0998 350.3973 7.7923 11.4895 350.4806 340.5615 357.6123 13.7993 323.8446 62.0794 332.8897 13.2863 354.8327 317.6792 89.5628 355.1411 350.5654 25.8422 356.2874 343.9172 37.2884 47.1492 13.1797 335.6301 352.3607 34.5145 268.2530 355.5271 2.9201 348.7566 350.1219 357.8141 357.4956 7.4550 4.4179 352.4239 351.2397 13.2210 348.2840 346.7698 2.4669 12.3058 17.8099 14.5274 349.3283 340.7068 312.0759 
-7.3221 93.8267 110.4113 354.9577 346.9012 200.7254 1.5931 349.7386 1.0308 3.7220 13.2117 0.4565 348.9309 351.1081 350.4192 7.8053 11.6016 350.4871 340.5796 357.6251 13.8070 323.6117 61.9913 333.1951 13.0842 354.9650 317.9698 89.2285 355.0503 350.3801 25.8305 356.2729 343.9235 37.4534 47.1832 12.9692 335.5707 352.2930 34.6191 268.3783 355.4751 2.9544 348.8393 350.2317 357.8558 357.5103 7.3628 4.7475 352.9583 351.5646 12.8482 348.5257 347.0187 2.5560 12.2976 17.9061 14.6286 349.2897 340.5785 312.0688 
-7.3693 93.7741 110.1927 355.0616 347.2281 200.4704 1.5523 349.8171 1.0601 3.8303 13.2120 0.4810 348.9075 351.1591 350.4384 7.9223 11.6967 350.4850 340.5737 357.6239 13.8052 323.6343 62.1029 333.2403 13.0272 355.0089 318.3493 89.5871 355.0735 350.4140 25.8314 356.3009 344.0406 37.8530 47.0797 12.4132 335.5296 352.2307 34.8816 268.6101 355.4987 3.0978 349.0111 350.3553 357.9567 357.4861 7.5093 4.4094 352.4964 351.2236 13.0348 348.8340 347.2864 2.7353 12.2832 18.0534 14.7023 349.2619 340.4187 312.0961 
-7.4321 93.7237 109.9830 355.1858 347.4855 200.3164 1.5224 349.8040 1.0358 3.8724 13.2249 0.4505 349.0296 351.2241 350.4208 7.9651 11.7406 350.4408 340.6020 357.6415 13.7904 323.5450 62.0535 333.3916 12.8676 355.1438 318.7551 89.2929 354.8418 349.9744 25.8221 356.3172 343.9707 38.0059 47.0189 12.3370 335.5802 352.2280 34.9286 268.7349 355.4638 3.2691 349.1575 350.4705 357.9393 357.4819 7.5637 4.3189 353.5043 351.7104 13.3295 349.0863 347.4956 2.7595 12.2874 18.2381 14.8139 349.1896 340.2885 312.1024 
-7.4954 93.6672 109.7710 355.3213 347.7526 200.1689 1.5064 349.8032 1.0083 3.9105 13.2105 0.4189 349.0963 351.3239 350.4362 8.0514 11.7719 350.4330 340.6151 357.6278 13.7883 323.3822 62.0063 333.6505 12.7456 355.2428 319.0206 90.0260 355.0597 350.3599 25.8538 356.2743 343.8768 37.9061 47.1666 12.4374 335.6257 352.2595 34.8514 268.7971 355.3670 3.4160 349.3309 350.6340 357.9837 357.5344 7.6386 4.2635 353.5239 351.7648 13.1355 349.3406 347.7072 2.7419 12.3095 18.4303 14.8991 349.0914 340.1889 312.1829 
-7.5619 93.6058 109.5547 355.4586 348.0237 200.0213 1.4589 349.7841 0.9874 3.9815 13.2102 0.3924 349.2008 351.4354 350.4684 8.0795 11.7907 350.4430 340.6178 357.6385 13.7490 323.0949 61.9004 334.0573 12.5524 355.3542 319.3253 89.3555 354.8013 349.7167 25.9013 356.2781 343.8651 37.9523 47.1414 12.2497 335.7738 352.2941 35.0013 268.7983 355.3473 3.6027 349.5372 350.7403 357.8824 357.5171 7.9340 4.4513 354.0220 352.0394 13.0599 349.5957 347.9100 2.7521 12.3245 18.6680 15.1320 348.9870 340.0761 312.1087 
-7.6181 93.5336 109.3540 355.6342 348.2205 199.8850 1.4269 349.7097 0.9440 4.0223 13.1965 0.3478 349.3300 351.5148 350.4864 8.0938 11.8315 350.4385 340.6096 357.6346 13.7591 323.0871 61.8408 334.1938 12.4106 355.4297 319.6488 89.2922 354.7905 349.5547 25.9445 356.2382 343.7894 37.9546 47.1428 12.2193 335.8564 352.2989 35.0642 268.8945 355.3136 3.7254 349.7772 350.8251 357.8912 357.4903 8.1921 4.3738 354.3695 352.0112 13.4062 349.8664 348.0093 2.7493 12.3181 18.9114 15.2790 348.8334 340.0475 312.0971 
-7.6876 93.4665 109.1271 355.7822 348.4884 199.7384 1.3918 349.6719 0.8958 4.0632 13.2111 0.2974 349.4201 351.6582 350.5180 8.1600 11.8014 350.4464 340.5855 357.6461 13.7378 322.8950 61.7066 334.5384 12.2325 355.5378 319.9363 88.9473 354.7718 349.2785 26.0158 356.2232 343.7142 37.8732 47.2114 12.1919 335.9702 352.3091 35.1477 268.9670 355.3863 3.7401 350.0408 351.0529 357.8407 357.4370 8.3882 4.4765 354.3705 351.8531 13.5800 350.1494 348.2107 2.8137 12.3044 19.1538 15.4536 348.6802 340.0324 312.0362 
-7.7609 93.4052 108.8996 355.9179 348.7497 199.5835 1.3488 349.6409 0.8490 4.0842 13.2000 0.2524 349.5063 351.8221 350.5649 8.2503 11.7926 350.4641 340.5640 357.6452 13.7564 322.8248 61.6464 334.7389 12.1428 355.6086 320.2270 88.9903 354.6848 349.2873 26.0821 356.2057 343.6999 37.9444 47.1850 12.0249 336.0918 352.3422 35.2152 269.0131 355.2229 4.0343 350.3122 351.3236 357.8410 357.3526 8.4958 4.6336 354.7364 351.8930 13.6331 350.4243 348.3997 2.9049 12.2901 19.4408 15.9799 348.4333 339.9991 311.5971 
-7.8270 93.3394 108.6630 356.0731 349.0172 199.4643 1.3042 349.5791 0.7806 4.1051 13.2466 0.1807 349.6271 351.9382 350.6008 8.3216 11.8006 350.4718 340.5444 357.6229 13.7786 322.8006 61.5721 334.8876 12.0636 355.6629 320.5195 88.8927 354.7272 349.1720 26.1124 356.2156 343.7863 38.3686 46.7275 11.6073 336.3923 352.4451 35.4514 269.0552 355.0294 4.6875 350.6245 351.6302 357.9241 357.2391 8.5242 4.7185 355.2432 352.0416 13.6019 350.7332 348.6126 3.0555 12.2697 19.7013 16.3958 348.1892 339.9482 311.1847 
-7.9097 93.2823 108.4282 356.2242 349.2952 199.3866 1.2867 349.4985 0.6867 4.0840 13.3688 0.0809 349.6889 352.0271 350.6364 8.4973 11.7495 350.4813 340.4786 357.6224 13.7954 322.7935 61.3719 335.0697 11.8622 355.7788 320.7755 88.8754 354.6739 348.8226 26.2026 356.1847 343.7587 38.4017 46.6404 11.5585 336.5362 352.4317 35.5326 269.0548 354.8870 5.0424 350.9100 351.9811 357.9940 357.1299 8.5022 4.6638 355.8856 352.1813 13.6990 351.0256 348.8639 3.1886 12.2530 19.9180 16.4838 348.0879 339.8317 311.0470 
-7.9963 93.2369 108.2216 356.3125 349.5249 199.2496 1.2030 349.4627 0.6105 4.0605 13.4173 0.0184 349.8040 352.2004 350.7534 8.6054 11.5428 350.5837 340.3743 357.6027 13.8963 322.9762 61.2286 335.0206 11.7237 355.8465 321.0493 89.2358 354.7210 348.7745 26.3110 356.1698 343.7577 38.4146 46.6447 11.5168 336.6626 352.4709 35.4883 269.1103 354.8021 5.2022 351.1144 352.2978 358.1185 357.0233 8.4601 4.5273 356.2529 352.2901 13.9630 351.2437 349.0194 3.3322 12.2261 20.2067 16.6201 347.9524 339.7624 310.8831 
-8.1120 93.2068 108.0120 356.3259 349.7526 199.0940 1.1190 349.4267 0.5482 3.9427 13.5129 359.9717 349.7988 352.1049 350.7147 8.6836 11.7607 350.5227 340.2685 357.5505 14.0002 323.2383 60.9753 334.8603 11.5107 355.9638 321.4298 88.9743 354.5545 348.4592 26.4211 356.1622 343.7778 38.6179 46.3927 11.2636 336.7590 352.4723 35.6773 269.2065 354.8288 5.4562 351.1891 352.6757 358.1938 356.9953 8.3745 4.5011 356.8084 352.4628 14.1067 351.3617 349.2117 3.4545 12.2160 20.4855 16.7305 347.8591 339.6504 310.7574 
-8.2349 93.1902 107.8184 356.3172 349.9503 198.9449 1.0023 349.4037 0.4925 3.8372 13.5712 359.9373 349.8747 352.1194 350.7691 8.7303 11.8058 350.5651 340.1881 357.5232 14.0488 323.2711 60.7881 334.9365 11.3963 356.0313 321.6772 89.2492 354.6719 348.5849 26.5715 356.1159 343.6748 38.7094 45.8986 11.0496 337.0093 352.5055 36.0841 269.3300 354.9000 5.7919 351.2026 353.0292 358.2591 356.9949 8.2866 4.5432 357.0698 352.5251 14.2292 351.4354 349.3645 3.5429 12.2043 20.7829 16.8314 347.7941 339.5046 310.6568 
